<svg width="300" height="74" viewBox="0 0 300 74" fill="none" xmlns="http://www.w3.org/2000/svg">
<g clip-path="url(#clip0_1648_4103)">
<path d="M298.647 57.92L298.447 58.1204C296.543 60.0245 293.436 60.0245 291.532 58.1204L279.807 46.395L286.321 39.8809L298.647 52.1074C300.351 53.7108 300.351 56.2163 298.647 57.92Z" fill="#0C0B0D"/>
<path d="M297.245 16.9311C299.049 18.735 299.049 21.7415 297.345 23.4452L278.404 42.3862C278.304 42.4864 278.204 42.4864 278.204 42.3862L271.99 36.1728C271.89 36.0725 271.89 35.9723 271.99 35.9723L291.031 16.9311C292.535 15.1271 295.541 15.1271 297.245 16.9311Z" fill="#0C0B0D"/>
<path d="M269.885 39.5801L276.6 46.2946L264.774 58.1203C262.77 60.1246 259.563 60.1246 257.659 58.1203C255.955 56.4166 255.955 53.5103 257.659 51.7064L269.885 39.5801Z" fill="#0C0B0D"/>
<path d="M260.365 17.9309C258.26 20.0355 258.26 23.4429 260.365 25.5474L277.802 42.9852L285.419 35.3687L267.981 17.9309C265.877 15.7261 262.569 15.7261 260.365 17.9309Z" fill="#585759"/>
<path d="M293.035 27.8516C291.131 29.8559 288.425 31.0585 285.418 31.0585C282.512 31.0585 280.007 29.9561 278.103 28.052L285.418 35.3679L293.035 27.8516Z" fill="#585759"/>
<path d="M55.9208 60.4247C53.4154 62.9301 49.4067 62.9301 46.9012 60.4247L36.7793 50.3028L45.7988 41.2832L55.9208 51.4051C58.4262 53.8104 58.4262 57.9193 55.9208 60.4247Z" fill="#0C0B0D"/>
<path d="M21.0456 40.8809L30.0651 49.9004L10.8234 69.0419C8.318 71.5473 4.30931 71.5473 1.80388 69.0419C-0.701553 66.5365 -0.701553 62.5278 1.80388 60.0224L21.0456 40.8809Z" fill="#0C0B0D"/>
<path d="M33.4717 46.4933L24.4521 37.4737L57.123 4.8029C59.6284 2.29747 63.6371 2.29747 66.1425 4.8029C68.6479 7.30833 68.6479 11.317 66.1425 13.8225L33.4717 46.4933Z" fill="#0C0B0D"/>
<path d="M12.6281 16.6291C10.1227 19.1345 10.1227 23.1432 12.6281 25.6486L33.4733 46.4938L42.4928 37.4743L21.6476 16.6291C19.1422 14.1236 15.0333 14.1236 12.6281 16.6291Z" fill="#585759"/>
<path d="M51.5119 28.5547C49.2069 30.9599 45.9999 32.3629 42.4923 32.3629C39.085 32.3629 35.9782 30.9599 33.7734 28.7551L42.4923 37.474L51.5119 28.5547Z" fill="#585759"/>
<path d="M100.818 59.6234C100.217 59.6234 99.7157 59.5232 99.2147 59.3227C98.7136 59.1223 98.2125 58.8217 97.8116 58.4208C97.4107 58.0199 97.1101 57.6191 96.8094 57.118C96.609 56.6169 96.5088 56.1158 96.5088 55.5145V19.0354C96.5088 18.4341 96.609 17.7326 96.8094 17.3317C97.0099 16.8306 97.4107 16.3296 97.8116 16.0289C98.2125 15.7283 98.7136 15.4276 99.2147 15.3274C99.7157 15.127 100.217 15.127 100.818 15.127C101.419 15.127 101.82 15.2272 102.321 15.3274C102.822 15.5278 103.324 15.7283 103.724 16.0289C104.125 16.3296 104.426 16.7304 104.727 17.3317C104.927 17.8328 105.027 18.4341 105.027 19.0354V53.4099H123.066C123.668 53.4099 124.069 53.5101 124.469 53.7106C124.87 53.911 125.171 54.1114 125.472 54.4121C125.672 54.7128 125.973 55.0134 126.073 55.4143C126.273 55.8151 126.273 56.216 126.273 56.5167C126.273 56.9175 126.173 57.3184 126.073 57.6191C125.872 58.0199 125.772 58.3206 125.472 58.6212C125.271 58.9219 124.87 59.2225 124.469 59.3227C124.069 59.5232 123.567 59.5232 123.066 59.5232L100.818 59.6234Z" fill="#0C0B0D"/>
<path d="M158.844 43.0885C158.844 43.6898 158.644 44.0907 158.243 44.5917C157.842 44.9926 157.241 45.193 156.539 45.193H135.394C135.594 48.1996 136.496 50.5046 138.2 52.2083C139.903 53.9119 142.108 54.7137 144.814 54.7137C146.518 54.7137 148.121 54.5133 149.624 54.0122C151.128 53.5111 152.631 52.9098 154.134 52.108C154.535 51.9076 154.836 51.8074 155.136 51.8074C155.738 51.8074 156.139 52.0078 156.539 52.4087C156.84 52.8096 157.041 53.3106 157.041 53.8117C157.041 54.0122 157.041 54.3128 156.94 54.5133C156.84 54.7137 156.74 55.0143 156.64 55.2148C156.038 56.1167 155.136 56.8182 154.134 57.3193C153.132 57.9206 152.13 58.4217 151.028 58.7224C149.925 59.023 148.723 59.3237 147.52 59.5241C146.317 59.7245 145.215 59.7245 144.012 59.7245C141.808 59.7245 139.603 59.3237 137.699 58.6222C135.794 57.9206 133.991 56.8182 132.588 55.315C131.184 53.9119 130.082 52.108 129.18 50.1037C128.378 47.9991 127.978 45.8946 127.978 43.6898C127.978 41.7857 128.378 39.8815 129.08 37.9774C129.882 36.0733 130.884 34.2694 132.287 32.8663C133.69 31.4633 135.193 30.2607 137.097 29.2585C139.001 28.2563 141.206 27.8555 143.611 27.8555C146.117 27.8555 148.422 28.2563 150.226 29.0581C152.03 29.8598 153.633 30.9622 154.836 32.3652C156.038 33.7683 156.94 35.2715 157.642 37.1757C158.444 39.3804 158.844 41.1844 158.844 43.0885ZM152.431 41.485C152.33 40.4828 152.13 39.3805 151.729 38.2781C151.328 37.1757 150.727 36.1735 150.025 35.3718C149.324 34.57 148.422 33.9687 147.42 33.5679C146.418 33.167 145.215 32.9665 143.912 32.9665C142.709 32.9665 141.607 33.167 140.605 33.5679C139.603 33.9687 138.801 34.57 138.099 35.472C137.398 36.2737 136.797 37.2759 136.396 38.3783C135.995 39.4807 135.694 40.4828 135.594 41.3848L152.431 41.485Z" fill="#585759"/>
<path d="M182.896 38.9784C182.896 37.9762 182.696 37.0742 182.395 36.3727C182.094 35.6712 181.693 35.0699 181.092 34.669C180.491 34.2682 179.889 33.9675 179.188 33.6669C178.386 33.4664 177.584 33.3662 176.683 33.3662C175.68 33.3662 174.678 33.4664 173.776 33.5666C172.874 33.6669 172.073 33.7671 171.371 34.0677C170.669 34.2682 169.968 34.5688 169.266 34.7692C168.665 34.9697 167.964 35.3705 167.362 35.571C167.062 35.7714 166.761 35.7714 166.36 35.7714C166.059 35.7714 165.759 35.6712 165.558 35.571C165.358 35.4708 165.057 35.3705 164.857 35.0699C164.656 34.8695 164.556 34.669 164.356 34.3684C164.256 34.1679 164.155 33.7671 164.155 33.5666C164.155 33.3662 164.155 33.1658 164.256 32.9653C164.356 32.7649 164.456 32.5645 164.556 32.364C165.558 30.8608 167.062 29.8586 169.166 29.0569C171.271 28.4556 173.776 28.0547 176.783 28.0547C178.587 28.0547 180.29 28.2551 181.794 28.656C183.297 29.0569 184.7 29.6582 185.802 30.6603C186.905 31.6625 187.807 32.7649 188.408 34.1679C189.009 35.571 189.41 37.3749 189.41 39.3792V56.3159C189.41 56.9172 189.21 57.3181 189.109 57.719C188.909 58.1199 188.608 58.4205 188.308 58.7212C188.007 58.9216 187.606 59.2222 187.205 59.3225C186.804 59.5229 186.404 59.5229 186.003 59.5229C185.602 59.5229 185.201 59.4227 184.8 59.3225C184.399 59.122 184.099 59.0218 183.798 58.7212C183.497 58.5207 183.197 58.1199 183.096 57.719C182.896 57.3181 182.796 56.9172 182.796 56.4162V54.1112C182.395 54.8127 181.794 55.6144 181.092 56.3159C180.391 57.1177 179.589 57.719 178.587 58.2201C177.584 58.7212 176.683 59.122 175.68 59.3225C174.678 59.5229 173.576 59.7233 172.574 59.7233C171.07 59.7233 169.667 59.5229 168.364 59.122C167.062 58.7212 165.959 58.1199 165.057 57.3181C164.055 56.5164 163.354 55.6144 162.853 54.4118C162.251 53.2092 162.051 52.0066 162.051 50.804C162.051 48.8999 162.452 47.2964 163.253 45.9936C164.055 44.5905 165.258 43.5884 166.761 42.6864C168.264 41.7844 170.068 41.2834 172.273 40.8825C174.377 40.4816 176.783 40.2812 179.489 40.2812C179.889 40.2812 180.491 40.2812 180.992 40.2812C181.593 40.2812 182.094 40.2812 182.595 40.3814V38.7779H182.896V38.9784ZM182.796 44.791C182.595 44.791 182.395 44.791 182.194 44.791C181.994 44.791 181.693 44.791 181.493 44.791C181.292 44.791 180.892 44.791 180.691 44.791C180.491 44.791 180.19 44.791 179.99 44.791C178.687 44.791 177.384 44.8912 176.081 44.9914C174.778 45.1918 173.576 45.3923 172.574 45.8934C171.571 46.2942 170.669 46.8955 170.068 47.6973C169.467 48.499 169.066 49.401 169.066 50.7038C169.066 51.3051 169.266 52.0066 169.567 52.6079C169.868 53.2092 170.269 53.8105 170.87 54.3116C171.471 54.8127 172.073 55.1133 172.774 55.3138C173.476 55.5142 174.277 55.6144 175.079 55.6144C176.181 55.6144 177.184 55.414 178.086 55.0131C179.088 54.6123 179.789 54.0109 180.591 53.3094C181.393 52.6079 181.894 51.706 182.295 50.804C182.696 49.8018 182.896 48.6994 182.896 47.1962V44.791H182.796Z" fill="#585759"/>
<path d="M196.926 31.9633C196.926 31.362 197.027 30.9611 197.227 30.46C197.427 29.9589 197.728 29.6583 198.129 29.4579C198.53 29.2574 198.831 28.9568 199.332 28.8566C199.833 28.6561 200.234 28.6561 200.735 28.6561C201.136 28.6561 201.637 28.7563 202.037 28.8566C202.438 29.057 202.839 29.1572 203.14 29.4579C203.441 29.6583 203.741 30.0592 203.942 30.46C204.142 30.8609 204.242 31.362 204.242 31.8631C204.242 31.8631 204.242 32.0635 204.242 32.2639C204.242 32.4644 204.242 32.8652 204.242 33.1659C204.242 33.4665 204.242 33.7672 204.242 34.0679C204.242 34.3685 204.242 34.4687 204.242 34.4687C204.743 32.765 205.645 31.2618 206.948 30.0592C208.351 28.9568 210.155 28.3555 212.36 28.3555C212.961 28.3555 213.362 28.4557 213.763 28.5559C214.164 28.7563 214.464 28.9568 214.765 29.1572C214.965 29.3576 215.266 29.7585 215.366 30.1594C215.567 30.46 215.567 30.8609 215.567 31.2618C215.567 31.6626 215.467 31.9633 215.366 32.3642C215.166 32.6648 215.066 32.9655 214.765 33.3663C214.464 33.667 214.164 33.8674 213.763 34.0679C213.362 34.2683 212.761 34.2683 212.26 34.2683C211.057 34.2683 209.955 34.4687 208.952 34.8696C207.95 35.1702 207.149 35.7715 206.447 36.4731C205.746 37.1746 205.244 37.9763 204.844 38.9785C204.443 39.9807 204.242 41.0831 204.242 42.5863V56.5165C204.242 57.1178 204.142 57.6189 203.942 58.0198C203.741 58.4206 203.441 58.8215 203.04 59.0219C202.739 59.3226 202.338 59.523 201.837 59.6232C201.336 59.8237 200.935 59.8237 200.434 59.8237C199.933 59.8237 199.532 59.7235 199.031 59.6232C198.63 59.4228 198.229 59.3226 197.929 59.0219C197.628 58.7213 197.327 58.4206 197.127 58.0198C196.926 57.6189 196.826 57.0176 196.826 56.5165L196.926 31.9633Z" fill="#585759"/>
<path d="M219.676 31.9632C219.676 31.3619 219.776 30.961 219.977 30.4599C220.177 30.059 220.478 29.6582 220.778 29.4577C221.079 29.2573 221.48 28.9566 221.981 28.8564C222.482 28.656 222.883 28.656 223.384 28.656C223.885 28.656 224.286 28.7562 224.787 28.8564C225.188 29.0569 225.589 29.1571 225.889 29.4577C226.19 29.7584 226.491 30.059 226.691 30.4599C226.892 30.8608 226.992 31.3619 226.992 31.8629V34.2682C227.393 33.4664 227.994 32.6647 228.696 31.8629C229.397 31.0612 230.199 30.3597 231.201 29.7584C232.203 29.1571 233.105 28.7562 234.208 28.4556C235.31 28.1549 236.312 28.0547 237.515 28.0547C238.918 28.0547 240.421 28.2551 241.624 28.7562C243.027 29.2573 244.129 29.9588 245.131 30.8608C246.133 31.7627 246.935 33.0655 247.536 34.5688C248.138 36.0721 248.438 37.876 248.438 39.8803V56.1155C248.438 56.7168 248.338 57.2179 248.138 57.6188C247.937 58.0196 247.637 58.4205 247.336 58.7212C247.035 59.0218 246.634 59.3225 246.133 59.3225C245.632 59.5229 245.231 59.5229 244.73 59.5229C244.229 59.5229 243.828 59.4227 243.327 59.3225C242.926 59.122 242.526 58.9216 242.225 58.7212C241.924 58.4205 241.624 58.1199 241.423 57.6188C241.223 57.2179 241.123 56.6166 241.123 56.1155V39.8803C241.123 38.6777 240.922 37.6755 240.621 36.7736C240.321 35.8716 239.82 35.1701 239.218 34.669C238.617 34.0677 238.016 33.6669 237.214 33.3662C236.412 33.1658 235.711 32.9653 234.809 32.9653C233.706 32.9653 232.704 33.1658 231.702 33.5666C230.7 33.8673 229.998 34.4686 229.197 35.1701C228.395 35.8716 227.894 36.6734 227.493 37.6755C227.092 38.6777 226.892 39.7801 226.892 41.2834V56.1155C226.892 56.7168 226.791 57.2179 226.591 57.6188C226.391 58.0196 226.09 58.4205 225.789 58.7212C225.489 59.0218 225.088 59.3225 224.587 59.3225C224.086 59.5229 223.685 59.5229 223.184 59.5229C222.683 59.5229 222.282 59.4227 221.781 59.3225C221.38 59.122 220.979 58.9216 220.578 58.7212C220.277 58.4205 219.977 58.1199 219.776 57.6188C219.576 57.2179 219.476 56.6166 219.476 56.1155L219.676 31.9632Z" fill="#585759"/>
</g>
<defs>
<clipPath id="clip0_1648_4103">
<rect width="300" height="74" fill="white"/>
</clipPath>
</defs>
</svg>
